Normalized EMG Linear Envelopes
nRows=271
nColumns=4

endheader
time	 med_gas_r	  soleus_r	 tib_ant_r	
2.9605	  0.105553	  0.125011	  0.058707	
2.99376	  0.105864	  0.128302	  0.060713	
3.02702	  0.106020	  0.130118	  0.062473	
3.06029	  0.105536	  0.129705	  0.063935	
3.09355	  0.104871	  0.127114	  0.065144	
3.12682	  0.104650	  0.122860	  0.066202	
3.16008	  0.105085	  0.117757	  0.067569	
3.19334	  0.105907	  0.112742	  0.069508	
3.22661	  0.106488	  0.108724	  0.071585	
3.25987	  0.106533	  0.106316	  0.072832	
3.29314	  0.106084	  0.105509	  0.072710	
3.3264	  0.105249	  0.106181	  0.071208	
3.35966	  0.103925	  0.108046	  0.068818	
3.39293	  0.101945	  0.110724	  0.066169	
3.42619	  0.099623	  0.113865	  0.063877	
3.45946	  0.097784	  0.116969	  0.062032	
3.49272	  0.097129	  0.119831	  0.060549	
3.52598	  0.098029	  0.122951	  0.059869	
3.55925	  0.100240	  0.126771	  0.060112	
3.59251	  0.103327	  0.130909	  0.061046	
3.62578	  0.107099	  0.134531	  0.062446	
3.65904	  0.110848	  0.137154	  0.064112	
3.6923	  0.113629	  0.138455	  0.065591	
3.72557	  0.115323	  0.138414	  0.066436	
3.75883	  0.116088	  0.137265	  0.066181	
3.7921	  0.116133	  0.135446	  0.064948	
3.82536	  0.115807	  0.132959	  0.064147	
3.85862	  0.115277	  0.130086	  0.065172	
3.89189	  0.114044	  0.127541	  0.068979	
3.92515	  0.112164	  0.126158	  0.076559	
3.95842	  0.110554	  0.126569	  0.088877	
3.99168	  0.109857	  0.128528	  0.106202	
4.02494	  0.110661	  0.131197	  0.127670	
4.05821	  0.113877	  0.134363	  0.151121	
4.09147	  0.120133	  0.137863	  0.172885	
4.12474	  0.129655	  0.141209	  0.189641	
4.158	  0.142538	  0.143708	  0.202155	
4.19126	  0.158966	  0.145855	  0.213138	
4.22453	  0.179026	  0.148496	  0.223875	
4.25779	  0.201872	  0.151564	  0.234580	
4.29106	  0.224981	  0.155198	  0.244734	
4.32432	  0.245729	  0.159835	  0.256047	
4.35758	  0.262756	  0.165522	  0.272622	
4.39085	  0.273738	  0.171393	  0.296135	
4.42411	  0.278149	  0.176789	  0.326543	
4.45738	  0.278694	  0.181339	  0.363233	
4.49064	  0.279346	  0.184322	  0.403198	
4.5239	  0.283497	  0.186089	  0.442424	
4.55717	  0.292621	  0.186881	  0.478036	
4.59043	  0.305517	  0.186703	  0.509638	
4.6237	  0.318533	  0.186228	  0.536960	
4.65696	  0.327419	  0.185892	  0.559172	
4.69022	  0.331652	  0.185415	  0.575247	
4.72349	  0.333385	  0.184331	  0.585019	
4.75675	  0.333464	  0.183153	  0.589051	
4.79002	  0.331324	  0.182741	  0.590893	
4.82328	  0.325546	  0.184359	  0.591882	
4.85654	  0.316545	  0.187297	  0.590465	
4.88981	  0.307412	  0.189786	  0.587248	
4.92307	  0.302063	  0.190216	  0.582568	
4.95634	  0.302333	  0.188689	  0.576948	
4.9896	  0.306810	  0.186475	  0.570974	
5.02286	  0.314379	  0.184950	  0.561634	
5.05613	  0.325063	  0.184599	  0.546882	
5.08939	  0.336887	  0.184604	  0.531173	
5.12266	  0.345847	  0.185299	  0.518039	
5.15592	  0.348014	  0.186845	  0.504427	
5.18918	  0.345408	  0.188808	  0.488009	
5.22245	  0.341859	  0.190447	  0.473536	
5.25571	  0.339408	  0.191633	  0.464408	
5.28898	  0.338893	  0.192211	  0.460720	
5.32224	  0.339873	  0.192764	  0.462551	
5.3555	  0.338965	  0.194111	  0.471063	
5.38877	  0.332682	  0.196424	  0.488236	
5.42203	  0.322730	  0.198992	  0.514643	
5.4553	  0.312303	  0.201452	  0.546728	
5.48856	  0.303317	  0.203506	  0.580143	
5.52182	  0.296899	  0.205542	  0.613411	
5.55509	  0.293467	  0.207728	  0.645732	
5.58835	  0.294225	  0.210505	  0.671971	
5.62162	  0.301915	  0.213864	  0.683784	
5.65488	  0.316512	  0.217018	  0.678257	
5.68814	  0.335101	  0.219453	  0.659283	
5.72141	  0.353697	  0.221828	  0.630790	
5.75467	  0.368835	  0.225317	  0.597906	
5.78794	  0.381084	  0.230359	  0.563186	
5.8212	  0.392682	  0.236751	  0.531227	
5.85446	  0.404603	  0.243532	  0.504261	
5.88773	  0.416251	  0.249815	  0.482918	
5.92099	  0.425691	  0.255859	  0.468639	
5.95426	  0.431465	  0.262085	  0.464420	
5.98752	  0.433706	  0.268317	  0.468691	
6.02078	  0.433209	  0.273965	  0.476804	
6.05405	  0.431764	  0.279227	  0.482774	
6.08731	  0.428687	  0.284257	  0.483489	
6.12058	  0.422014	  0.287956	  0.478424	
6.15384	  0.412957	  0.288331	  0.469561	
6.1871	  0.403705	  0.285051	  0.459681	
6.22037	  0.395293	  0.278608	  0.452175	
6.25363	  0.388004	  0.269453	  0.449940	
6.2869	  0.381112	  0.259270	  0.451813	
6.32016	  0.373908	  0.250273	  0.454663	
6.35342	  0.367839	  0.243810	  0.455946	
6.38669	  0.362317	  0.239466	  0.453203	
6.41995	  0.356024	  0.236945	  0.446569	
6.45322	  0.351051	  0.236500	  0.435958	
6.48648	  0.349873	  0.238641	  0.422009	
6.51974	  0.352113	  0.243012	  0.407617	
6.55301	  0.357669	  0.247748	  0.394677	
6.58627	  0.366433	  0.251331	  0.382768	
6.61954	  0.374664	  0.253979	  0.370349	
6.6528	  0.378653	  0.256157	  0.356867	
6.68606	  0.376128	  0.257310	  0.343602	
6.71933	  0.367444	  0.256273	  0.332597	
6.75259	  0.357744	  0.252972	  0.325211	
6.78586	  0.350724	  0.249570	  0.318845	
6.81912	  0.345605	  0.247315	  0.310526	
6.85238	  0.342094	  0.246273	  0.300854	
6.88565	  0.341836	  0.246698	  0.292954	
6.91891	  0.344107	  0.249211	  0.288760	
6.95218	  0.348524	  0.254049	  0.289750	
6.98544	  0.356332	  0.260176	  0.297155	
7.0187	  0.367532	  0.265173	  0.310454	
7.05197	  0.379143	  0.266649	  0.328156	
7.08523	  0.387662	  0.263388	  0.351036	
7.1185	  0.388665	  0.255515	  0.380362	
7.15176	  0.382524	  0.243475	  0.414439	
7.18502	  0.372811	  0.229085	  0.450639	
7.21829	  0.361627	  0.215749	  0.486791	
7.25155	  0.350818	  0.206177	  0.519129	
7.28482	  0.342721	  0.201938	  0.546550	
7.31808	  0.338415	  0.203711	  0.568634	
7.35134	  0.339324	  0.210170	  0.578539	
7.38461	  0.344892	  0.218827	  0.572799	
7.41787	  0.352751	  0.226800	  0.555289	
7.45114	  0.360434	  0.232937	  0.529659	
7.4844	  0.364911	  0.238074	  0.499352	
7.51766	  0.366876	  0.242509	  0.466440	
7.55093	  0.367590	  0.245756	  0.434468	
7.58419	  0.367757	  0.248343	  0.407915	
7.61746	  0.367816	  0.251467	  0.387311	
7.65072	  0.366224	  0.255381	  0.371003	
7.68398	  0.361221	  0.258835	  0.356216	
7.71725	  0.355591	  0.260563	  0.343119	
7.75051	  0.353059	  0.261136	  0.334547	
7.78378	  0.354725	  0.261682	  0.333805	
7.81704	  0.358235	  0.262558	  0.340932	
7.8503	  0.359352	  0.263754	  0.353530	
7.88357	  0.358374	  0.266010	  0.367227	
7.91683	  0.358883	  0.269268	  0.378412	
7.9501	  0.362452	  0.273257	  0.386009	
7.98336	  0.366497	  0.277754	  0.389771	
8.01662	  0.367781	  0.283078	  0.391519	
8.04989	  0.367488	  0.289270	  0.393090	
8.08315	  0.368185	  0.294985	  0.394371	
8.11642	  0.369914	  0.298758	  0.394747	
8.14968	  0.371242	  0.299705	  0.393651	
8.18294	  0.371874	  0.298408	  0.389547	
8.21621	  0.370852	  0.295570	  0.384911	
8.24947	  0.369333	  0.292720	  0.382686	
8.28274	  0.367998	  0.292545	  0.382477	
8.316	  0.367300	  0.295436	  0.381075	
8.34926	  0.367418	  0.299564	  0.374577	
8.38253	  0.366289	  0.301865	  0.362859	
8.41579	  0.363777	  0.301155	  0.350426	
8.44906	  0.360454	  0.297603	  0.340240	
8.48232	  0.356748	  0.290566	  0.332628	
8.51558	  0.353711	  0.278724	  0.327492	
8.54885	  0.348756	  0.263653	  0.326785	
8.58211	  0.341023	  0.248966	  0.330903	
8.61538	  0.333454	  0.236692	  0.338106	
8.64864	  0.329183	  0.228389	  0.346124	
8.6819	  0.328754	  0.225039	  0.352370	
8.71517	  0.330497	  0.226574	  0.355501	
8.74843	  0.331924	  0.232319	  0.357366	
8.7817	  0.333713	  0.241928	  0.359472	
8.81496	  0.337760	  0.254381	  0.361994	
8.84822	  0.344603	  0.267735	  0.363310	
8.88149	  0.353353	  0.281490	  0.365492	
8.91475	  0.361727	  0.294852	  0.371598	
8.94802	  0.368024	  0.305744	  0.381503	
8.98128	  0.372123	  0.312478	  0.392315	
9.01454	  0.375170	  0.315561	  0.400800	
9.04781	  0.377396	  0.317234	  0.403401	
9.08107	  0.377456	  0.317512	  0.400004	
9.11434	  0.373268	  0.314539	  0.394220	
9.1476	  0.365488	  0.308374	  0.388496	
9.18086	  0.356700	  0.299718	  0.384246	
9.21413	  0.347923	  0.287814	  0.382834	
9.24739	  0.339268	  0.273865	  0.384267	
9.28066	  0.329441	  0.260022	  0.388225	
9.31392	  0.319791	  0.246865	  0.395189	
9.34718	  0.310864	  0.234244	  0.404653	
9.38045	  0.304375	  0.223225	  0.415037	
9.41371	  0.303485	  0.214974	  0.423112	
9.44698	  0.309031	  0.210242	  0.426475	
9.48024	  0.318756	  0.210335	  0.422497	
9.5135	  0.331074	  0.215569	  0.411541	
9.54677	  0.345059	  0.224213	  0.398820	
9.58003	  0.358829	  0.233934	  0.388095	
9.6133	  0.368844	  0.242002	  0.379050	
9.64656	  0.374473	  0.248052	  0.371517	
9.67982	  0.374111	  0.253553	  0.368321	
9.71309	  0.369236	  0.259823	  0.370344	
9.74635	  0.364982	  0.268002	  0.375321	
9.77962	  0.364204	  0.277863	  0.381183	
9.81288	  0.366632	  0.288159	  0.387382	
9.84614	  0.368966	  0.296303	  0.393049	
9.87941	  0.370278	  0.300644	  0.397775	
9.91267	  0.373009	  0.300778	  0.399710	
9.94594	  0.377489	  0.297346	  0.397504	
9.9792	  0.383008	  0.292663	  0.391709	
10.0125	  0.387430	  0.288754	  0.383822	
10.0457	  0.387867	  0.286782	  0.374673	
10.079	  0.386370	  0.285695	  0.364180	
10.1123	  0.385544	  0.284445	  0.353962	
10.1455	  0.386076	  0.282216	  0.347088	
10.1788	  0.385402	  0.277860	  0.345385	
10.212	  0.381935	  0.270996	  0.348546	
10.2453	  0.377781	  0.262602	  0.354832	
10.2786	  0.375765	  0.253578	  0.362513	
10.3118	  0.373910	  0.245235	  0.369646	
10.3451	  0.368281	  0.239039	  0.372888	
10.3784	  0.359021	  0.235334	  0.371213	
10.4116	  0.347656	  0.233952	  0.366920	
10.4449	  0.337429	  0.234962	  0.363249	
10.4782	  0.330694	  0.237907	  0.361598	
10.5114	  0.328246	  0.241467	  0.361050	
10.5447	  0.329350	  0.244390	  0.358079	
10.578	  0.333045	  0.247809	  0.350602	
10.6112	  0.339228	  0.252442	  0.337780	
10.6445	  0.348370	  0.257349	  0.321210	
10.6777	  0.358599	  0.261891	  0.304950	
10.711	  0.365534	  0.266044	  0.291710	
10.7443	  0.366382	  0.269942	  0.282317	
10.7775	  0.363846	  0.273255	  0.275925	
10.8108	  0.361463	  0.275238	  0.271319	
10.8441	  0.360724	  0.275971	  0.268392	
10.8773	  0.362927	  0.275954	  0.267393	
10.9106	  0.365750	  0.275030	  0.266139	
10.9439	  0.366299	  0.271772	  0.262975	
10.9771	  0.364747	  0.265553	  0.258839	
11.0104	  0.362771	  0.256595	  0.255190	
11.0436	  0.360983	  0.245666	  0.253492	
11.0769	  0.357370	  0.233750	  0.252586	
11.1102	  0.350279	  0.222528	  0.250252	
11.1434	  0.342746	  0.213951	  0.246193	
11.1767	  0.336984	  0.209424	  0.241425	
11.21	  0.333879	  0.208498	  0.237215	
11.2432	  0.331776	  0.209526	  0.232824	
11.2765	  0.326983	  0.210402	  0.227496	
11.3098	  0.313923	  0.209370	  0.221965	
11.343	  0.293469	  0.206270	  0.217517	
11.3763	  0.271278	  0.201410	  0.215656	
11.4096	  0.252728	  0.196043	  0.216902	
11.4428	  0.240640	  0.190418	  0.219823	
11.4761	  0.234396	  0.183787	  0.222232	
11.5093	  0.229974	  0.176984	  0.222935	
11.5426	  0.225133	  0.171920	  0.223282	
11.5759	  0.219380	  0.170016	  0.224970	
11.6091	  0.211620	  0.171277	  0.229157	
11.6424	  0.203813	  0.174459	  0.235773	
11.6757	  0.197340	  0.177816	  0.244358	
11.7089	  0.191909	  0.179214	  0.253736	
11.7422	  0.188220	  0.178570	  0.261812	
11.7755	  0.187389	  0.176994	  0.266971	
11.8087	  0.189336	  0.174664	  0.269564	
11.842	  0.192480	  0.171027	  0.268310	
11.8752	  0.193863	  0.166942	  0.262006	
11.9085	  0.191887	  0.162939	  0.252181	
11.9418	  0.187619	  0.159349	  0.240394	
